<svg width="100" height="100" viewBox="0 0 100 100" fill="none" xmlns="http://www.w3.org/2000/svg">
<circle cx="49" cy="50" r="41.8333" fill="black" stroke="black" stroke-width="6.33333"/>
<path d="M71.1667 29.3333C71.1667 40.8393 61.8393 50.1667 50.3333 50.1667C38.8274 50.1667 29.5 40.8393 29.5 29.3333C29.5 17.8274 38.8274 8.5 50.3333 8.5C61.8393 8.5 71.1667 17.8274 71.1667 29.3333Z" fill="black" stroke="#CAA247" stroke-width="5"/>
<path d="M50.5 34C55.167 34 59.4576 33.5432 62.6385 32.7721C64.2132 32.3904 65.6282 31.9053 66.6979 31.2922C67.6156 30.7662 69 29.7263 69 28C69 26.2737 67.6156 25.2338 66.6979 24.7078C65.6282 24.0947 64.2132 23.6096 62.6385 23.2279C59.4576 22.4568 55.167 22 50.5 22C45.833 22 41.5424 22.4568 38.3615 23.2279C36.7868 23.6096 35.3718 24.0947 34.3021 24.7078C33.3844 25.2338 32 26.2737 32 28C32 29.7263 33.3844 30.7662 34.3021 31.2922C35.3718 31.9053 36.7868 32.3904 38.3615 32.7721C41.5424 33.5432 45.833 34 50.5 34Z" fill="black" stroke="#CAA247" stroke-width="4"/>
<path d="M49 22H52V34H49V22Z" fill="#CAA247"/>
<path d="M84.6306 73.3637L84.5613 71.1797C84.2497 61.366 76.1309 53.6124 66.3132 53.7527L49 54L33.5524 53.7728C23.3985 53.6235 15.1312 61.8983 15.2899 72.0521L15.3228 74.16C15.4311 81.0896 19.5081 87.3416 25.8056 90.235L31.8155 92.9963C33.2654 93.6625 34.7974 94.1329 36.3713 94.3952L46.9131 96.1522C48.2996 96.3833 49.7084 96.4511 51.1107 96.3544L59.9957 95.7417C62.3101 95.5821 64.5718 94.9766 66.6563 93.9585L74.5387 90.109C80.9051 86.9998 84.8554 80.4452 84.6306 73.3637Z" stroke="#CAA247" stroke-width="5"/>
<circle cx="50" cy="50" r="46.8333" stroke="#CAA247" stroke-width="6.33333"/>
</svg>
